 <svg version="1.0" xmlns="http://www.w3.org/2000/svg"  width="300.000000pt" height="300.000000pt" viewBox="0 0 300.000000 300.000000"  preserveAspectRatio="xMidYMid meet">  <g transform="translate(0.000000,300.000000) scale(0.050000,-0.050000)" fill="#000000" stroke="none"> <path d="M2067 5672 c-1436 -274 -2088 -1939 -1212 -3092 616 -811 1800 -1010 2635 -441 l60 41 690 -691 c555 -554 706 -694 765 -710 241 -67 485 226 373 447 -12 24 -329 351 -703 727 l-681 683 41 57 c950 1346 -334 3290 -1968 2979z m763 -601 c1223 -412 1282 -2127 89 -2597 -1158 -457 -2290 733 -1769 1860 292 631 1031 955 1680 737z"/> </g> </svg> 